<svg xmlns="http://www.w3.org/2000/svg" width="108.366" height="55.713" viewBox="0 0 108.366 55.713">
  <g id="Group_2086" data-name="Group 2086" transform="translate(-592.374 -421.512)">
    <rect id="Rectangle_631" data-name="Rectangle 631" width="3.972" height="4.043" transform="translate(638.608 425.486)"/>
    <rect id="Rectangle_632" data-name="Rectangle 632" width="3.972" height="4.043" transform="translate(642.585 425.486)"/>
    <rect id="Rectangle_633" data-name="Rectangle 633" width="3.972" height="4.043" transform="translate(646.557 425.486)"/>
    <rect id="Rectangle_634" data-name="Rectangle 634" width="3.972" height="4.043" transform="translate(650.534 425.486)"/>
    <rect id="Rectangle_635" data-name="Rectangle 635" width="3.972" height="4.043" transform="translate(634.633 421.512)"/>
    <rect id="Rectangle_636" data-name="Rectangle 636" width="3.972" height="4.043" transform="translate(630.661 421.512)"/>
    <rect id="Rectangle_637" data-name="Rectangle 637" width="3.972" height="4.043" transform="translate(638.61 421.512)"/>
    <rect id="Rectangle_638" data-name="Rectangle 638" width="3.972" height="4.043" transform="translate(642.582 421.512)"/>
    <rect id="Rectangle_640" data-name="Rectangle 640" width="3.972" height="4.043" transform="translate(646.557 433.436)"/>
    <rect id="Rectangle_641" data-name="Rectangle 641" width="3.972" height="4.043" transform="translate(642.582 433.436)"/>
    <rect id="Rectangle_642" data-name="Rectangle 642" width="3.972" height="4.043" transform="translate(646.559 429.393)" fill="#ffe205"/>
    <rect id="Rectangle_643" data-name="Rectangle 643" width="3.972" height="4.043" transform="translate(642.582 429.461)"/>
    <rect id="Rectangle_644" data-name="Rectangle 644" width="3.972" height="4.043" transform="translate(658.483 421.512)"/>
    <rect id="Rectangle_645" data-name="Rectangle 645" width="3.972" height="4.043" transform="translate(654.506 421.512)" fill="#ffe205"/>
    <rect id="Rectangle_646" data-name="Rectangle 646" width="3.972" height="4.043" transform="translate(650.534 421.512)"/>
    <rect id="Rectangle_648" data-name="Rectangle 648" width="3.972" height="4.043" transform="translate(642.585 445.359)"/>
    <rect id="Rectangle_649" data-name="Rectangle 649" width="3.972" height="4.043" transform="translate(646.559 441.316)" fill="#ffe205"/>
    <rect id="Rectangle_650" data-name="Rectangle 650" width="3.972" height="4.043" transform="translate(642.585 441.385)"/>
    <rect id="Rectangle_651" data-name="Rectangle 651" width="3.972" height="4.043" transform="translate(646.557 437.41)"/>
    <rect id="Rectangle_652" data-name="Rectangle 652" width="3.972" height="4.043" transform="translate(650.534 469.207)" fill="#ffe205"/>
    <rect id="Rectangle_653" data-name="Rectangle 653" width="3.972" height="4.043" transform="translate(646.557 469.207)" fill="#ffe205"/>
    <rect id="Rectangle_654" data-name="Rectangle 654" width="3.972" height="4.043" transform="translate(642.585 469.207)"/>
    <rect id="Rectangle_655" data-name="Rectangle 655" width="3.972" height="4.043" transform="translate(638.608 469.207)"/>
    <rect id="Rectangle_656" data-name="Rectangle 656" width="3.972" height="4.043" transform="translate(654.508 473.182)" fill="#ffe205"/>
    <rect id="Rectangle_657" data-name="Rectangle 657" width="3.972" height="4.043" transform="translate(658.481 473.182)"/>
    <rect id="Rectangle_658" data-name="Rectangle 658" width="3.972" height="4.043" transform="translate(650.532 473.182)"/>
    <rect id="Rectangle_659" data-name="Rectangle 659" width="3.972" height="4.043" transform="translate(646.559 473.182)"/>
    <rect id="Rectangle_660" data-name="Rectangle 660" width="3.972" height="4.043" transform="translate(642.585 473.182)"/>
    <rect id="Rectangle_661" data-name="Rectangle 661" width="3.972" height="4.043" transform="translate(642.585 461.258)"/>
    <rect id="Rectangle_662" data-name="Rectangle 662" width="3.972" height="4.043" transform="translate(646.559 461.258)"/>
    <rect id="Rectangle_663" data-name="Rectangle 663" width="3.972" height="4.043" transform="translate(642.582 465.301)"/>
    <rect id="Rectangle_664" data-name="Rectangle 664" width="3.972" height="4.043" transform="translate(646.559 465.232)"/>
    <rect id="Rectangle_665" data-name="Rectangle 665" width="3.972" height="4.043" transform="translate(630.659 473.182)"/>
    <rect id="Rectangle_666" data-name="Rectangle 666" width="3.972" height="4.043" transform="translate(634.635 473.182)"/>
    <rect id="Rectangle_667" data-name="Rectangle 667" width="3.972" height="4.043" transform="translate(638.608 473.182)"/>
    <rect id="Rectangle_669" data-name="Rectangle 669" width="3.972" height="4.043" transform="translate(646.557 449.334)"/>
    <rect id="Rectangle_670" data-name="Rectangle 670" width="3.972" height="4.043" transform="translate(642.582 453.377)"/>
    <rect id="Rectangle_671" data-name="Rectangle 671" width="3.972" height="4.043" transform="translate(642.585 457.283)"/>
    <rect id="Rectangle_672" data-name="Rectangle 672" width="3.972" height="4.043" transform="translate(646.559 457.352)" fill="#ffe205"/>
    <rect id="Rectangle_828" data-name="Rectangle 828" width="3.972" height="4.043" transform="translate(676.892 425.486)"/>
    <rect id="Rectangle_829" data-name="Rectangle 829" width="3.972" height="4.043" transform="translate(680.869 425.486)"/>
    <rect id="Rectangle_830" data-name="Rectangle 830" width="3.972" height="4.043" transform="translate(684.842 425.486)"/>
    <rect id="Rectangle_831" data-name="Rectangle 831" width="3.972" height="4.043" transform="translate(688.818 425.486)"/>
    <rect id="Rectangle_832" data-name="Rectangle 832" width="3.972" height="4.043" transform="translate(672.918 421.512)"/>
    <rect id="Rectangle_833" data-name="Rectangle 833" width="3.972" height="4.043" transform="translate(668.945 421.512)"/>
    <rect id="Rectangle_834" data-name="Rectangle 834" width="3.972" height="4.043" transform="translate(676.895 421.512)"/>
    <rect id="Rectangle_835" data-name="Rectangle 835" width="3.972" height="4.043" transform="translate(680.867 421.512)"/>
    <rect id="Rectangle_836" data-name="Rectangle 836" width="3.972" height="4.043" transform="translate(684.842 421.512)"/>
    <rect id="Rectangle_837" data-name="Rectangle 837" width="3.972" height="4.043" transform="translate(684.842 433.436)"/>
    <rect id="Rectangle_838" data-name="Rectangle 838" width="3.972" height="4.043" transform="translate(680.867 433.436)"/>
    <rect id="Rectangle_839" data-name="Rectangle 839" width="3.972" height="4.043" transform="translate(684.844 429.393)" fill="#ffe205"/>
    <rect id="Rectangle_840" data-name="Rectangle 840" width="3.972" height="4.043" transform="translate(680.867 429.461)"/>
    <rect id="Rectangle_841" data-name="Rectangle 841" width="3.972" height="4.043" transform="translate(696.768 421.512)"/>
    <rect id="Rectangle_842" data-name="Rectangle 842" width="3.972" height="4.043" transform="translate(692.791 421.512)" fill="#ffe205"/>
    <rect id="Rectangle_843" data-name="Rectangle 843" width="3.972" height="4.043" transform="translate(688.818 421.512)"/>
    <rect id="Rectangle_845" data-name="Rectangle 845" width="3.972" height="4.043" transform="translate(680.869 445.359)"/>
    <rect id="Rectangle_846" data-name="Rectangle 846" width="3.972" height="4.043" transform="translate(684.844 441.316)" fill="#ffe205"/>
    <rect id="Rectangle_847" data-name="Rectangle 847" width="3.972" height="4.043" transform="translate(680.869 441.385)"/>
    <rect id="Rectangle_848" data-name="Rectangle 848" width="3.972" height="4.043" transform="translate(684.842 437.41)"/>
    <rect id="Rectangle_849" data-name="Rectangle 849" width="3.972" height="4.043" transform="translate(688.818 469.207)" fill="#ffe205"/>
    <rect id="Rectangle_850" data-name="Rectangle 850" width="3.972" height="4.043" transform="translate(684.842 469.207)"/>
    <rect id="Rectangle_851" data-name="Rectangle 851" width="3.972" height="4.043" transform="translate(680.869 469.207)"/>
    <rect id="Rectangle_852" data-name="Rectangle 852" width="3.972" height="4.043" transform="translate(676.892 469.207)"/>
    <rect id="Rectangle_853" data-name="Rectangle 853" width="3.972" height="4.043" transform="translate(692.793 473.182)" fill="#ffe205"/>
    <rect id="Rectangle_854" data-name="Rectangle 854" width="3.972" height="4.043" transform="translate(696.765 473.182)"/>
    <rect id="Rectangle_855" data-name="Rectangle 855" width="3.972" height="4.043" transform="translate(688.816 473.182)"/>
    <rect id="Rectangle_856" data-name="Rectangle 856" width="3.972" height="4.043" transform="translate(684.844 473.182)"/>
    <rect id="Rectangle_859" data-name="Rectangle 859" width="3.972" height="4.043" transform="translate(684.844 461.258)"/>
    <rect id="Rectangle_860" data-name="Rectangle 860" width="3.972" height="4.043" transform="translate(680.867 465.301)"/>
    <rect id="Rectangle_861" data-name="Rectangle 861" width="3.972" height="4.043" transform="translate(684.844 465.232)"/>
    <rect id="Rectangle_862" data-name="Rectangle 862" width="3.972" height="4.043" transform="translate(668.943 473.182)"/>
    <rect id="Rectangle_863" data-name="Rectangle 863" width="3.972" height="4.043" transform="translate(672.92 473.182)"/>
    <rect id="Rectangle_864" data-name="Rectangle 864" width="3.972" height="4.043" transform="translate(676.892 473.182)"/>
    <rect id="Rectangle_865" data-name="Rectangle 865" width="3.972" height="4.043" transform="translate(680.869 449.334)"/>
    <rect id="Rectangle_866" data-name="Rectangle 866" width="3.972" height="4.043" transform="translate(684.842 449.334)"/>
    <rect id="Rectangle_867" data-name="Rectangle 867" width="3.972" height="4.043" transform="translate(680.867 453.377)"/>
    <rect id="Rectangle_868" data-name="Rectangle 868" width="3.972" height="4.043" transform="translate(680.869 457.283)"/>
    <rect id="Rectangle_869" data-name="Rectangle 869" width="3.972" height="4.043" transform="translate(684.844 457.352)" fill="#ffe205"/>
    <rect id="Rectangle_870" data-name="Rectangle 870" width="3.972" height="4.043" transform="translate(600.323 425.486)"/>
    <rect id="Rectangle_871" data-name="Rectangle 871" width="3.972" height="4.043" transform="translate(604.3 425.486)"/>
    <rect id="Rectangle_872" data-name="Rectangle 872" width="3.972" height="4.043" transform="translate(608.272 425.486)"/>
    <rect id="Rectangle_873" data-name="Rectangle 873" width="3.972" height="4.043" transform="translate(612.249 425.486)" fill="#ffe205"/>
    <rect id="Rectangle_874" data-name="Rectangle 874" width="3.972" height="4.043" transform="translate(596.349 421.512)"/>
    <rect id="Rectangle_875" data-name="Rectangle 875" width="3.972" height="4.043" transform="translate(592.376 421.512)"/>
    <rect id="Rectangle_876" data-name="Rectangle 876" width="3.972" height="4.043" transform="translate(600.325 421.512)"/>
    <rect id="Rectangle_877" data-name="Rectangle 877" width="3.972" height="4.043" transform="translate(604.298 421.512)"/>
    <rect id="Rectangle_878" data-name="Rectangle 878" width="3.972" height="4.043" transform="translate(608.272 421.512)"/>
    <rect id="Rectangle_880" data-name="Rectangle 880" width="3.972" height="4.043" transform="translate(604.298 433.436)"/>
    <rect id="Rectangle_881" data-name="Rectangle 881" width="3.972" height="4.043" transform="translate(608.275 429.393)" fill="#ffe205"/>
    <rect id="Rectangle_882" data-name="Rectangle 882" width="3.972" height="4.043" transform="translate(604.298 429.461)"/>
    <rect id="Rectangle_883" data-name="Rectangle 883" width="3.972" height="4.043" transform="translate(620.198 421.512)" fill="#ffe205"/>
    <rect id="Rectangle_884" data-name="Rectangle 884" width="3.972" height="4.043" transform="translate(616.222 421.512)"/>
    <rect id="Rectangle_885" data-name="Rectangle 885" width="3.972" height="4.043" transform="translate(612.249 421.512)"/>
    <rect id="Rectangle_886" data-name="Rectangle 886" width="3.972" height="4.043" transform="translate(608.272 445.359)"/>
    <rect id="Rectangle_887" data-name="Rectangle 887" width="3.972" height="4.043" transform="translate(604.3 445.359)"/>
    <rect id="Rectangle_888" data-name="Rectangle 888" width="3.972" height="4.043" transform="translate(608.275 441.316)" fill="#ffe205"/>
    <rect id="Rectangle_890" data-name="Rectangle 890" width="3.972" height="4.043" transform="translate(608.272 437.41)"/>
    <rect id="Rectangle_891" data-name="Rectangle 891" width="3.972" height="4.043" transform="translate(612.249 469.207)"/>
    <rect id="Rectangle_892" data-name="Rectangle 892" width="3.972" height="4.043" transform="translate(608.272 469.207)"/>
    <rect id="Rectangle_893" data-name="Rectangle 893" width="3.972" height="4.043" transform="translate(604.3 469.207)"/>
    <rect id="Rectangle_894" data-name="Rectangle 894" width="3.972" height="4.043" transform="translate(600.323 469.207)"/>
    <rect id="Rectangle_895" data-name="Rectangle 895" width="3.972" height="4.043" transform="translate(616.224 473.182)"/>
    <rect id="Rectangle_896" data-name="Rectangle 896" width="3.972" height="4.043" transform="translate(620.196 473.182)" fill="#ffe205"/>
    <rect id="Rectangle_897" data-name="Rectangle 897" width="3.972" height="4.043" transform="translate(612.247 473.182)" fill="#ffe205"/>
    <rect id="Rectangle_899" data-name="Rectangle 899" width="3.972" height="4.043" transform="translate(604.3 473.182)"/>
    <rect id="Rectangle_900" data-name="Rectangle 900" width="3.972" height="4.043" transform="translate(604.3 461.258)"/>
    <rect id="Rectangle_901" data-name="Rectangle 901" width="3.972" height="4.043" transform="translate(608.275 461.258)"/>
    <rect id="Rectangle_902" data-name="Rectangle 902" width="3.972" height="4.043" transform="translate(604.298 465.301)"/>
    <rect id="Rectangle_903" data-name="Rectangle 903" width="3.972" height="4.043" transform="translate(608.275 465.232)" fill="#ffe205"/>
    <rect id="Rectangle_904" data-name="Rectangle 904" width="3.972" height="4.043" transform="translate(592.374 473.182)"/>
    <rect id="Rectangle_905" data-name="Rectangle 905" width="3.972" height="4.043" transform="translate(596.351 473.182)"/>
    <rect id="Rectangle_906" data-name="Rectangle 906" width="3.972" height="4.043" transform="translate(600.323 473.182)"/>
    <rect id="Rectangle_907" data-name="Rectangle 907" width="3.972" height="4.043" transform="translate(604.3 449.334)"/>
    <rect id="Rectangle_908" data-name="Rectangle 908" width="3.972" height="4.043" transform="translate(608.272 449.334)"/>
    <rect id="Rectangle_909" data-name="Rectangle 909" width="3.972" height="4.043" transform="translate(604.298 453.377)"/>
    <rect id="Rectangle_910" data-name="Rectangle 910" width="3.972" height="4.043" transform="translate(604.3 457.283)"/>
    <rect id="Rectangle_911" data-name="Rectangle 911" width="3.972" height="4.043" transform="translate(608.275 457.352)" fill="#ffe205"/>
  </g>
</svg>
