<svg xmlns="http://www.w3.org/2000/svg" width="76.161" height="55.713" viewBox="0 0 76.161 55.713">
  <g id="Group_2081" data-name="Group 2081" transform="translate(-378.42 -421.512)">
    <rect id="Rectangle_476" data-name="Rectangle 476" width="3.972" height="4.043" transform="translate(386.369 425.486)"/>
    <rect id="Rectangle_477" data-name="Rectangle 477" width="3.972" height="4.043" transform="translate(390.346 425.486)"/>
    <rect id="Rectangle_478" data-name="Rectangle 478" width="3.972" height="4.043" transform="translate(394.318 425.486)"/>
    <rect id="Rectangle_479" data-name="Rectangle 479" width="3.972" height="4.043" transform="translate(398.295 425.486)" fill="#fbe14d"/>
    <rect id="Rectangle_480" data-name="Rectangle 480" width="3.972" height="4.043" transform="translate(382.394 421.512)"/>
    <rect id="Rectangle_481" data-name="Rectangle 481" width="3.972" height="4.043" transform="translate(378.422 421.512)"/>
    <rect id="Rectangle_482" data-name="Rectangle 482" width="3.972" height="4.043" transform="translate(386.371 421.512)"/>
    <rect id="Rectangle_483" data-name="Rectangle 483" width="3.972" height="4.043" transform="translate(390.344 421.512)"/>
    <rect id="Rectangle_484" data-name="Rectangle 484" width="3.972" height="4.043" transform="translate(394.318 421.512)"/>
    <rect id="Rectangle_485" data-name="Rectangle 485" width="3.972" height="4.043" transform="translate(394.318 433.436)"/>
    <rect id="Rectangle_486" data-name="Rectangle 486" width="3.972" height="4.043" transform="translate(390.344 433.436)"/>
    <rect id="Rectangle_487" data-name="Rectangle 487" width="3.972" height="4.043" transform="translate(394.32 429.393)" fill="#fbe14d"/>
    <rect id="Rectangle_488" data-name="Rectangle 488" width="3.972" height="4.043" transform="translate(390.344 429.461)"/>
    <rect id="Rectangle_489" data-name="Rectangle 489" width="3.972" height="4.043" transform="translate(406.244 421.512)"/>
    <rect id="Rectangle_490" data-name="Rectangle 490" width="3.972" height="4.043" transform="translate(402.267 421.512)" fill="#fbe14d"/>
    <rect id="Rectangle_491" data-name="Rectangle 491" width="3.972" height="4.043" transform="translate(398.295 421.512)"/>
    <rect id="Rectangle_492" data-name="Rectangle 492" width="3.972" height="4.043" transform="translate(394.318 445.359)"/>
    <rect id="Rectangle_493" data-name="Rectangle 493" width="3.972" height="4.043" transform="translate(390.346 445.359)"/>
    <rect id="Rectangle_494" data-name="Rectangle 494" width="3.972" height="4.043" transform="translate(394.32 441.316)" fill="#fbe14d"/>
    <rect id="Rectangle_495" data-name="Rectangle 495" width="3.972" height="4.043" transform="translate(390.346 441.385)"/>
    <rect id="Rectangle_496" data-name="Rectangle 496" width="3.972" height="4.043" transform="translate(394.318 437.41)"/>
    <rect id="Rectangle_497" data-name="Rectangle 497" width="3.972" height="4.043" transform="translate(398.295 469.207)"/>
    <rect id="Rectangle_498" data-name="Rectangle 498" width="3.972" height="4.043" transform="translate(394.318 469.207)" fill="#fbe14d"/>
    <rect id="Rectangle_499" data-name="Rectangle 499" width="3.972" height="4.043" transform="translate(390.346 469.207)"/>
    <rect id="Rectangle_500" data-name="Rectangle 500" width="3.972" height="4.043" transform="translate(386.369 469.207)"/>
    <rect id="Rectangle_501" data-name="Rectangle 501" width="3.972" height="4.043" transform="translate(402.27 473.182)"/>
    <rect id="Rectangle_502" data-name="Rectangle 502" width="3.972" height="4.043" transform="translate(406.242 473.182)"/>
    <rect id="Rectangle_503" data-name="Rectangle 503" width="3.972" height="4.043" transform="translate(398.293 473.182)" fill="#fbe14d"/>
    <rect id="Rectangle_504" data-name="Rectangle 504" width="3.972" height="4.043" transform="translate(394.32 473.182)"/>
    <rect id="Rectangle_505" data-name="Rectangle 505" width="3.972" height="4.043" transform="translate(390.346 473.182)"/>
    <rect id="Rectangle_506" data-name="Rectangle 506" width="3.972" height="4.043" transform="translate(390.346 461.258)"/>
    <rect id="Rectangle_507" data-name="Rectangle 507" width="3.972" height="4.043" transform="translate(394.32 461.258)" fill="#fbe14d"/>
    <rect id="Rectangle_508" data-name="Rectangle 508" width="3.972" height="4.043" transform="translate(390.344 465.301)"/>
    <rect id="Rectangle_509" data-name="Rectangle 509" width="3.972" height="4.043" transform="translate(394.32 465.232)"/>
    <rect id="Rectangle_510" data-name="Rectangle 510" width="3.972" height="4.043" transform="translate(378.42 473.182)"/>
    <rect id="Rectangle_511" data-name="Rectangle 511" width="3.972" height="4.043" transform="translate(382.396 473.182)"/>
    <rect id="Rectangle_512" data-name="Rectangle 512" width="3.972" height="4.043" transform="translate(386.369 473.182)"/>
    <rect id="Rectangle_513" data-name="Rectangle 513" width="3.972" height="4.043" transform="translate(390.346 449.334)"/>
    <rect id="Rectangle_514" data-name="Rectangle 514" width="3.972" height="4.043" transform="translate(394.318 449.334)"/>
    <rect id="Rectangle_515" data-name="Rectangle 515" width="3.972" height="4.043" transform="translate(390.344 453.377)"/>
    <rect id="Rectangle_516" data-name="Rectangle 516" width="3.972" height="4.043" transform="translate(390.346 457.283)"/>
    <rect id="Rectangle_517" data-name="Rectangle 517" width="3.972" height="4.043" transform="translate(394.32 457.352)"/>
    <rect id="Rectangle_786" data-name="Rectangle 786" width="3.972" height="4.043" transform="translate(430.733 425.486)"/>
    <rect id="Rectangle_787" data-name="Rectangle 787" width="3.972" height="4.043" transform="translate(434.709 425.486)"/>
    <rect id="Rectangle_788" data-name="Rectangle 788" width="3.972" height="4.043" transform="translate(438.682 425.486)"/>
    <rect id="Rectangle_789" data-name="Rectangle 789" width="3.972" height="4.043" transform="translate(442.659 425.486)" fill="#ffe205"/>
    <rect id="Rectangle_790" data-name="Rectangle 790" width="3.972" height="4.043" transform="translate(426.758 421.512)"/>
    <rect id="Rectangle_791" data-name="Rectangle 791" width="3.972" height="4.043" transform="translate(422.786 421.512)"/>
    <rect id="Rectangle_792" data-name="Rectangle 792" width="3.972" height="4.043" transform="translate(430.735 421.512)"/>
    <rect id="Rectangle_793" data-name="Rectangle 793" width="3.972" height="4.043" transform="translate(434.707 421.512)"/>
    <rect id="Rectangle_794" data-name="Rectangle 794" width="3.972" height="4.043" transform="translate(438.682 421.512)"/>
    <rect id="Rectangle_795" data-name="Rectangle 795" width="3.972" height="4.043" transform="translate(438.682 433.436)"/>
    <rect id="Rectangle_796" data-name="Rectangle 796" width="3.972" height="4.043" transform="translate(434.707 433.436)"/>
    <rect id="Rectangle_797" data-name="Rectangle 797" width="3.972" height="4.043" transform="translate(438.684 429.393)"/>
    <rect id="Rectangle_798" data-name="Rectangle 798" width="3.972" height="4.043" transform="translate(434.707 429.461)"/>
    <rect id="Rectangle_799" data-name="Rectangle 799" width="3.972" height="4.043" transform="translate(450.608 421.512)" fill="#ffe205"/>
    <rect id="Rectangle_800" data-name="Rectangle 800" width="3.972" height="4.043" transform="translate(446.631 421.512)"/>
    <rect id="Rectangle_801" data-name="Rectangle 801" width="3.972" height="4.043" transform="translate(442.659 421.512)"/>
    <rect id="Rectangle_802" data-name="Rectangle 802" width="3.972" height="4.043" transform="translate(438.682 445.359)"/>
    <rect id="Rectangle_804" data-name="Rectangle 804" width="3.972" height="4.043" transform="translate(438.684 441.316)"/>
    <rect id="Rectangle_805" data-name="Rectangle 805" width="3.972" height="4.043" transform="translate(434.709 437.273)"/>
    <rect id="Rectangle_806" data-name="Rectangle 806" width="3.972" height="4.043" transform="translate(438.682 437.41)" fill="#ffe205"/>
    <rect id="Rectangle_807" data-name="Rectangle 807" width="3.972" height="4.043" transform="translate(442.659 469.207)" fill="#ffe205"/>
    <rect id="Rectangle_808" data-name="Rectangle 808" width="3.972" height="4.043" transform="translate(438.682 469.207)"/>
    <rect id="Rectangle_809" data-name="Rectangle 809" width="3.972" height="4.043" transform="translate(434.709 469.207)"/>
    <rect id="Rectangle_810" data-name="Rectangle 810" width="3.972" height="4.043" transform="translate(430.733 469.207)"/>
    <rect id="Rectangle_811" data-name="Rectangle 811" width="3.972" height="4.043" transform="translate(446.633 473.182)" fill="#ffe205"/>
    <rect id="Rectangle_812" data-name="Rectangle 812" width="3.972" height="4.043" transform="translate(450.606 473.182)"/>
    <rect id="Rectangle_813" data-name="Rectangle 813" width="3.972" height="4.043" transform="translate(442.656 473.182)"/>
    <rect id="Rectangle_814" data-name="Rectangle 814" width="3.972" height="4.043" transform="translate(438.684 473.182)"/>
    <rect id="Rectangle_815" data-name="Rectangle 815" width="3.972" height="4.043" transform="translate(434.709 473.182)"/>
    <rect id="Rectangle_816" data-name="Rectangle 816" width="3.972" height="4.043" transform="translate(434.709 461.258)"/>
    <rect id="Rectangle_817" data-name="Rectangle 817" width="3.972" height="4.043" transform="translate(438.684 461.258)"/>
    <rect id="Rectangle_818" data-name="Rectangle 818" width="3.972" height="4.043" transform="translate(434.707 465.301)"/>
    <rect id="Rectangle_819" data-name="Rectangle 819" width="3.972" height="4.043" transform="translate(438.684 465.232)"/>
    <rect id="Rectangle_820" data-name="Rectangle 820" width="3.972" height="4.043" transform="translate(422.784 473.182)"/>
    <rect id="Rectangle_821" data-name="Rectangle 821" width="3.972" height="4.043" transform="translate(426.76 473.182)"/>
    <rect id="Rectangle_822" data-name="Rectangle 822" width="3.972" height="4.043" transform="translate(430.733 473.182)"/>
    <rect id="Rectangle_823" data-name="Rectangle 823" width="3.972" height="4.043" transform="translate(434.709 449.334)"/>
    <rect id="Rectangle_824" data-name="Rectangle 824" width="3.972" height="4.043" transform="translate(438.682 449.334)"/>
    <rect id="Rectangle_825" data-name="Rectangle 825" width="3.972" height="4.043" transform="translate(434.707 453.377)"/>
    <rect id="Rectangle_826" data-name="Rectangle 826" width="3.972" height="4.043" transform="translate(434.709 457.283)"/>
    <rect id="Rectangle_827" data-name="Rectangle 827" width="3.972" height="4.043" transform="translate(438.684 457.352)" fill="#ffe205"/>
  </g>
</svg>
