<svg xmlns="http://www.w3.org/2000/svg" width="113.037" height="55.748" viewBox="0 0 113.037 55.748">
  <g id="Group_2106" data-name="Group 2106" transform="translate(-592.614 -726.833)">
    <rect id="Rectangle_1374" data-name="Rectangle 1374" width="3.972" height="4.044" transform="translate(612.489 730.842)"/>
    <rect id="Rectangle_1375" data-name="Rectangle 1375" width="3.972" height="4.044" transform="translate(608.512 730.842)"/>
    <rect id="Rectangle_1376" data-name="Rectangle 1376" width="3.972" height="4.044" transform="translate(604.54 730.842)"/>
    <rect id="Rectangle_1377" data-name="Rectangle 1377" width="3.972" height="4.044" transform="translate(600.563 730.842)"/>
    <rect id="Rectangle_1378" data-name="Rectangle 1378" width="3.972" height="4.044" transform="translate(616.464 726.867)"/>
    <rect id="Rectangle_1379" data-name="Rectangle 1379" width="3.972" height="4.044" transform="translate(620.436 726.867)"/>
    <rect id="Rectangle_1380" data-name="Rectangle 1380" width="3.972" height="4.044" transform="translate(612.487 726.867)"/>
    <rect id="Rectangle_1381" data-name="Rectangle 1381" width="3.972" height="4.044" transform="translate(608.514 726.867)"/>
    <rect id="Rectangle_1382" data-name="Rectangle 1382" width="3.972" height="4.044" transform="translate(604.54 726.867)"/>
    <rect id="Rectangle_1383" data-name="Rectangle 1383" width="3.972" height="4.044" transform="translate(604.54 738.791)"/>
    <rect id="Rectangle_1384" data-name="Rectangle 1384" width="3.972" height="4.044" transform="translate(608.514 738.791)"/>
    <rect id="Rectangle_1385" data-name="Rectangle 1385" width="3.972" height="4.044" transform="translate(604.538 734.748)"/>
    <rect id="Rectangle_1386" data-name="Rectangle 1386" width="3.972" height="4.044" transform="translate(608.514 734.816)"/>
    <rect id="Rectangle_1387" data-name="Rectangle 1387" width="3.972" height="4.044" transform="translate(592.614 726.867)"/>
    <rect id="Rectangle_1388" data-name="Rectangle 1388" width="3.972" height="4.044" transform="translate(596.591 726.867)"/>
    <rect id="Rectangle_1389" data-name="Rectangle 1389" width="3.972" height="4.044" transform="translate(600.563 726.867)"/>
    <rect id="Rectangle_1390" data-name="Rectangle 1390" width="3.972" height="4.044" transform="translate(604.54 750.715)"/>
    <rect id="Rectangle_1391" data-name="Rectangle 1391" width="3.972" height="4.044" transform="translate(608.512 750.715)"/>
    <rect id="Rectangle_1392" data-name="Rectangle 1392" width="3.972" height="4.044" transform="translate(604.538 746.672)"/>
    <rect id="Rectangle_1393" data-name="Rectangle 1393" width="3.972" height="4.044" transform="translate(608.512 746.74)"/>
    <rect id="Rectangle_1394" data-name="Rectangle 1394" width="3.972" height="4.044" transform="translate(604.54 742.766)"/>
    <rect id="Rectangle_1395" data-name="Rectangle 1395" width="3.972" height="4.044" transform="translate(600.563 774.563)"/>
    <rect id="Rectangle_1396" data-name="Rectangle 1396" width="3.972" height="4.044" transform="translate(604.54 774.563)"/>
    <rect id="Rectangle_1397" data-name="Rectangle 1397" width="3.972" height="4.044" transform="translate(608.512 774.563)"/>
    <rect id="Rectangle_1398" data-name="Rectangle 1398" width="3.972" height="4.044" transform="translate(612.489 774.563)"/>
    <rect id="Rectangle_1399" data-name="Rectangle 1399" width="3.972" height="4.044" transform="translate(596.588 778.537)"/>
    <rect id="Rectangle_1400" data-name="Rectangle 1400" width="3.972" height="4.044" transform="translate(592.616 778.537)"/>
    <rect id="Rectangle_1401" data-name="Rectangle 1401" width="3.972" height="4.044" transform="translate(600.565 778.537)"/>
    <rect id="Rectangle_1402" data-name="Rectangle 1402" width="3.972" height="4.044" transform="translate(604.538 778.537)"/>
    <rect id="Rectangle_1403" data-name="Rectangle 1403" width="3.972" height="4.044" transform="translate(608.512 778.537)"/>
    <rect id="Rectangle_1404" data-name="Rectangle 1404" width="3.972" height="4.044" transform="translate(608.512 766.613)"/>
    <rect id="Rectangle_1405" data-name="Rectangle 1405" width="3.972" height="4.044" transform="translate(604.538 766.613)"/>
    <rect id="Rectangle_1406" data-name="Rectangle 1406" width="3.972" height="4.044" transform="translate(608.514 770.656)"/>
    <rect id="Rectangle_1407" data-name="Rectangle 1407" width="3.972" height="4.044" transform="translate(604.538 770.588)"/>
    <rect id="Rectangle_1408" data-name="Rectangle 1408" width="3.972" height="4.044" transform="translate(620.438 778.537)"/>
    <rect id="Rectangle_1409" data-name="Rectangle 1409" width="3.972" height="4.044" transform="translate(616.461 778.537)"/>
    <rect id="Rectangle_1410" data-name="Rectangle 1410" width="3.972" height="4.044" transform="translate(612.489 778.537)"/>
    <rect id="Rectangle_1411" data-name="Rectangle 1411" width="3.972" height="4.044" transform="translate(608.512 754.689)"/>
    <rect id="Rectangle_1412" data-name="Rectangle 1412" width="3.972" height="4.044" transform="translate(604.54 754.689)"/>
    <rect id="Rectangle_1413" data-name="Rectangle 1413" width="3.972" height="4.044" transform="translate(608.514 758.732)"/>
    <rect id="Rectangle_1414" data-name="Rectangle 1414" width="3.972" height="4.044" transform="translate(608.512 762.639)"/>
    <rect id="Rectangle_1415" data-name="Rectangle 1415" width="3.972" height="4.044" transform="translate(604.538 762.707)"/>
    <g id="Group_2080" data-name="Group 2080" transform="translate(634.023 726.833)">
      <rect id="Rectangle_291" data-name="Rectangle 291" width="3.977" height="4.049" transform="translate(47.752 27.788)"/>
      <rect id="Rectangle_292" data-name="Rectangle 292" width="3.977" height="4.049" transform="translate(43.776 31.768)"/>
      <rect id="Rectangle_293" data-name="Rectangle 293" width="3.977" height="4.049" transform="translate(35.814 47.755)"/>
      <rect id="Rectangle_294" data-name="Rectangle 294" width="3.977" height="4.049" transform="translate(51.735 19.829)"/>
      <rect id="Rectangle_295" data-name="Rectangle 295" width="3.977" height="4.049" transform="translate(51.735 15.849)"/>
      <rect id="Rectangle_296" data-name="Rectangle 296" width="3.977" height="4.049" transform="translate(55.714 11.939)"/>
      <rect id="Rectangle_297" data-name="Rectangle 297" width="3.977" height="4.049" transform="translate(39.796 43.707)"/>
      <rect id="Rectangle_298" data-name="Rectangle 298" width="3.977" height="4.049" transform="translate(35.814 51.666)"/>
      <rect id="Rectangle_299" data-name="Rectangle 299" width="3.977" height="4.049" transform="translate(47.752 23.809)"/>
      <rect id="Rectangle_300" data-name="Rectangle 300" width="3.977" height="4.049" transform="translate(39.796 39.727)"/>
      <rect id="Rectangle_301" data-name="Rectangle 301" width="3.977" height="4.049" transform="translate(43.776 35.747)"/>
      <rect id="Rectangle_302" data-name="Rectangle 302" width="3.977" height="4.049" transform="translate(59.694 3.98)"/>
      <rect id="Rectangle_303" data-name="Rectangle 303" width="3.977" height="4.049" transform="translate(55.712 3.98)"/>
      <rect id="Rectangle_304" data-name="Rectangle 304" width="3.977" height="4.049" transform="translate(51.735 3.98)"/>
      <rect id="Rectangle_305" data-name="Rectangle 305" width="3.977" height="4.049" transform="translate(47.752 3.98)"/>
      <rect id="Rectangle_306" data-name="Rectangle 306" width="3.977" height="4.049" transform="translate(63.673)"/>
      <rect id="Rectangle_307" data-name="Rectangle 307" width="3.977" height="4.049" transform="translate(67.65)"/>
      <rect id="Rectangle_308" data-name="Rectangle 308" width="3.977" height="4.049" transform="translate(59.691)"/>
      <rect id="Rectangle_309" data-name="Rectangle 309" width="3.977" height="4.049" transform="translate(55.714)"/>
      <rect id="Rectangle_310" data-name="Rectangle 310" width="3.977" height="4.049" transform="translate(51.734)"/>
      <rect id="Rectangle_311" data-name="Rectangle 311" width="3.977" height="4.049" transform="translate(39.793)"/>
      <rect id="Rectangle_312" data-name="Rectangle 312" width="3.977" height="4.049" transform="translate(43.775)"/>
      <rect id="Rectangle_313" data-name="Rectangle 313" width="3.977" height="4.049" transform="translate(47.752)"/>
      <rect id="Rectangle_314" data-name="Rectangle 314" width="3.977" height="4.049" transform="translate(55.714 7.959)"/>
      <rect id="Rectangle_315" data-name="Rectangle 315" width="3.977" height="4.049" transform="translate(51.735 7.89)"/>
      <rect id="Rectangle_316" data-name="Rectangle 316" width="3.977" height="4.049" transform="translate(11.939 11.87)"/>
      <rect id="Rectangle_317" data-name="Rectangle 317" width="3.977" height="4.049" transform="translate(11.936 15.849)"/>
      <rect id="Rectangle_318" data-name="Rectangle 318" width="3.977" height="4.049" transform="translate(15.916 19.898)"/>
      <rect id="Rectangle_319" data-name="Rectangle 319" width="3.977" height="4.049" transform="translate(15.916 23.878)"/>
      <rect id="Rectangle_320" data-name="Rectangle 320" width="3.977" height="4.049" transform="translate(19.898 27.788)"/>
      <rect id="Rectangle_321" data-name="Rectangle 321" width="3.977" height="4.049" transform="translate(19.898 31.768)"/>
      <rect id="Rectangle_322" data-name="Rectangle 322" width="3.977" height="4.049" transform="translate(23.875 35.747)"/>
      <rect id="Rectangle_323" data-name="Rectangle 323" width="3.977" height="4.049" transform="translate(23.875 39.727)"/>
      <rect id="Rectangle_324" data-name="Rectangle 324" width="3.977" height="4.049" transform="translate(27.855 43.707)"/>
      <rect id="Rectangle_325" data-name="Rectangle 325" width="3.977" height="4.049" transform="translate(31.836 51.666)"/>
      <rect id="Rectangle_326" data-name="Rectangle 326" width="3.977" height="4.049" transform="translate(31.837 47.686)"/>
      <rect id="Rectangle_327" data-name="Rectangle 327" width="3.977" height="4.049" transform="translate(35.814 43.776)"/>
      <rect id="Rectangle_328" data-name="Rectangle 328" width="3.977" height="4.049" transform="translate(35.816 39.727)"/>
      <rect id="Rectangle_329" data-name="Rectangle 329" width="3.977" height="4.049" transform="translate(39.796 35.747)"/>
      <rect id="Rectangle_330" data-name="Rectangle 330" width="3.977" height="4.049" transform="translate(39.793 31.837)"/>
      <rect id="Rectangle_331" data-name="Rectangle 331" width="3.977" height="4.049" transform="translate(43.773 27.788)"/>
      <rect id="Rectangle_332" data-name="Rectangle 332" width="3.977" height="4.049" transform="translate(43.773 23.878)"/>
      <rect id="Rectangle_333" data-name="Rectangle 333" width="3.977" height="4.049" transform="translate(47.755 19.829)"/>
      <rect id="Rectangle_334" data-name="Rectangle 334" width="3.977" height="4.049" transform="translate(47.755 15.918)"/>
      <rect id="Rectangle_335" data-name="Rectangle 335" width="3.977" height="4.049" transform="translate(51.735 11.939)"/>
      <rect id="Rectangle_336" data-name="Rectangle 336" width="3.977" height="4.049" transform="translate(0)"/>
      <rect id="Rectangle_337" data-name="Rectangle 337" width="3.977" height="4.049" transform="translate(3.98)"/>
      <rect id="Rectangle_338" data-name="Rectangle 338" width="3.977" height="4.049" transform="translate(7.957)"/>
      <rect id="Rectangle_339" data-name="Rectangle 339" width="3.977" height="4.049" transform="translate(11.939)"/>
      <rect id="Rectangle_340" data-name="Rectangle 340" width="3.977" height="4.049" transform="translate(15.918)"/>
      <rect id="Rectangle_341" data-name="Rectangle 341" width="3.977" height="4.049" transform="translate(3.977 3.98)"/>
      <rect id="Rectangle_342" data-name="Rectangle 342" width="3.977" height="4.049" transform="translate(11.939 3.98)"/>
      <rect id="Rectangle_343" data-name="Rectangle 343" width="3.977" height="4.049" transform="translate(7.957 3.98)"/>
      <rect id="Rectangle_344" data-name="Rectangle 344" width="3.977" height="4.049" transform="translate(7.957 7.89)"/>
    </g>
  </g>
</svg>