<svg xmlns="http://www.w3.org/2000/svg" width="31.797" height="55.713" viewBox="0 0 31.797 55.713">
  <g id="Group_2095" data-name="Group 2095" transform="translate(-166.207 -421.512)">
    <rect id="Rectangle_247" data-name="Rectangle 247" width="3.972" height="4.043" transform="translate(174.156 425.486)"/>
    <rect id="Rectangle_248" data-name="Rectangle 248" width="3.972" height="4.043" transform="translate(178.133 425.486)"/>
    <rect id="Rectangle_249" data-name="Rectangle 249" width="3.972" height="4.043" transform="translate(182.105 425.486)"/>
    <rect id="Rectangle_250" data-name="Rectangle 250" width="3.972" height="4.043" transform="translate(186.082 425.486)"/>
    <rect id="Rectangle_251" data-name="Rectangle 251" width="3.972" height="4.043" transform="translate(170.181 421.512)"/>
    <rect id="Rectangle_252" data-name="Rectangle 252" width="3.972" height="4.043" transform="translate(166.209 421.512)"/>
    <rect id="Rectangle_253" data-name="Rectangle 253" width="3.972" height="4.043" transform="translate(174.158 421.512)"/>
    <rect id="Rectangle_254" data-name="Rectangle 254" width="3.972" height="4.043" transform="translate(178.13 421.512)"/>
    <rect id="Rectangle_255" data-name="Rectangle 255" width="3.972" height="4.043" transform="translate(182.105 421.512)"/>
    <rect id="Rectangle_256" data-name="Rectangle 256" width="3.972" height="4.043" transform="translate(182.105 433.436)"/>
    <rect id="Rectangle_257" data-name="Rectangle 257" width="3.972" height="4.043" transform="translate(178.13 433.436)"/>
    <rect id="Rectangle_258" data-name="Rectangle 258" width="3.972" height="4.043" transform="translate(182.107 429.393)"/>
    <rect id="Rectangle_259" data-name="Rectangle 259" width="3.972" height="4.043" transform="translate(178.13 429.461)"/>
    <rect id="Rectangle_260" data-name="Rectangle 260" width="3.972" height="4.043" transform="translate(194.031 421.512)"/>
    <rect id="Rectangle_261" data-name="Rectangle 261" width="3.972" height="4.043" transform="translate(190.054 421.512)"/>
    <rect id="Rectangle_262" data-name="Rectangle 262" width="3.972" height="4.043" transform="translate(186.082 421.512)"/>
    <rect id="Rectangle_263" data-name="Rectangle 263" width="3.972" height="4.043" transform="translate(182.105 445.359)"/>
    <rect id="Rectangle_264" data-name="Rectangle 264" width="3.972" height="4.043" transform="translate(178.133 445.359)"/>
    <rect id="Rectangle_265" data-name="Rectangle 265" width="3.972" height="4.043" transform="translate(182.107 441.316)"/>
    <rect id="Rectangle_266" data-name="Rectangle 266" width="3.972" height="4.043" transform="translate(178.133 441.385)"/>
    <rect id="Rectangle_267" data-name="Rectangle 267" width="3.972" height="4.043" transform="translate(182.105 437.41)"/>
    <rect id="Rectangle_269" data-name="Rectangle 269" width="3.972" height="4.043" transform="translate(186.082 469.207)"/>
    <rect id="Rectangle_270" data-name="Rectangle 270" width="3.972" height="4.043" transform="translate(182.105 469.207)"/>
    <rect id="Rectangle_271" data-name="Rectangle 271" width="3.972" height="4.043" transform="translate(178.133 469.207)"/>
    <rect id="Rectangle_272" data-name="Rectangle 272" width="3.972" height="4.043" transform="translate(174.156 469.207)"/>
    <rect id="Rectangle_273" data-name="Rectangle 273" width="3.972" height="4.043" transform="translate(190.056 473.182)"/>
    <rect id="Rectangle_274" data-name="Rectangle 274" width="3.972" height="4.043" transform="translate(194.029 473.182)"/>
    <rect id="Rectangle_275" data-name="Rectangle 275" width="3.972" height="4.043" transform="translate(186.08 473.182)"/>
    <rect id="Rectangle_276" data-name="Rectangle 276" width="3.972" height="4.043" transform="translate(182.107 473.182)"/>
    <rect id="Rectangle_277" data-name="Rectangle 277" width="3.972" height="4.043" transform="translate(178.133 473.182)"/>
    <rect id="Rectangle_278" data-name="Rectangle 278" width="3.972" height="4.043" transform="translate(178.133 461.258)"/>
    <rect id="Rectangle_279" data-name="Rectangle 279" width="3.972" height="4.043" transform="translate(182.107 461.258)"/>
    <rect id="Rectangle_280" data-name="Rectangle 280" width="3.972" height="4.043" transform="translate(178.13 465.301)"/>
    <rect id="Rectangle_281" data-name="Rectangle 281" width="3.972" height="4.043" transform="translate(182.107 465.232)"/>
    <rect id="Rectangle_282" data-name="Rectangle 282" width="3.972" height="4.043" transform="translate(166.207 473.182)"/>
    <rect id="Rectangle_283" data-name="Rectangle 283" width="3.972" height="4.043" transform="translate(170.183 473.182)"/>
    <rect id="Rectangle_284" data-name="Rectangle 284" width="3.972" height="4.043" transform="translate(174.156 473.182)"/>
    <rect id="Rectangle_285" data-name="Rectangle 285" width="3.972" height="4.043" transform="translate(178.133 449.334)"/>
    <rect id="Rectangle_286" data-name="Rectangle 286" width="3.972" height="4.043" transform="translate(182.105 449.334)"/>
    <rect id="Rectangle_287" data-name="Rectangle 287" width="3.972" height="4.043" transform="translate(178.13 453.377)"/>
    <rect id="Rectangle_289" data-name="Rectangle 289" width="3.972" height="4.043" transform="translate(178.133 457.283)"/>
    <rect id="Rectangle_290" data-name="Rectangle 290" width="3.972" height="4.043" transform="translate(182.107 457.352)"/>
  </g>
</svg>
