<svg xmlns="http://www.w3.org/2000/svg" width="71.628" height="55.714" viewBox="0 0 71.628 55.714">
  <g id="Group_2105" data-name="Group 2105" transform="translate(-376.975 -725.943)">
    <rect id="Rectangle_291" data-name="Rectangle 291" width="3.977" height="4.049" transform="translate(396.873 753.731)"/>
    <rect id="Rectangle_292" data-name="Rectangle 292" width="3.977" height="4.049" transform="translate(400.85 757.711)"/>
    <rect id="Rectangle_293" data-name="Rectangle 293" width="3.977" height="4.049" transform="translate(408.812 773.698)"/>
    <rect id="Rectangle_294" data-name="Rectangle 294" width="3.977" height="4.049" transform="translate(392.891 745.772)"/>
    <rect id="Rectangle_295" data-name="Rectangle 295" width="3.977" height="4.049" transform="translate(392.891 741.793)"/>
    <rect id="Rectangle_296" data-name="Rectangle 296" width="3.977" height="4.049" transform="translate(388.911 737.882)"/>
    <rect id="Rectangle_297" data-name="Rectangle 297" width="3.977" height="4.049" transform="translate(404.829 769.649)"/>
    <rect id="Rectangle_298" data-name="Rectangle 298" width="3.977" height="4.049" transform="translate(408.812 777.608)"/>
    <rect id="Rectangle_299" data-name="Rectangle 299" width="3.977" height="4.049" transform="translate(396.873 749.752)"/>
    <rect id="Rectangle_300" data-name="Rectangle 300" width="3.977" height="4.049" transform="translate(404.829 765.67)"/>
    <rect id="Rectangle_301" data-name="Rectangle 301" width="3.977" height="4.049" transform="translate(400.85 761.69)"/>
    <rect id="Rectangle_302" data-name="Rectangle 302" width="3.977" height="4.049" transform="translate(384.932 729.923)"/>
    <rect id="Rectangle_303" data-name="Rectangle 303" width="3.977" height="4.049" transform="translate(388.914 729.923)"/>
    <rect id="Rectangle_304" data-name="Rectangle 304" width="3.977" height="4.049" transform="translate(392.891 729.923)"/>
    <rect id="Rectangle_305" data-name="Rectangle 305" width="3.977" height="4.049" transform="translate(396.873 729.923)"/>
    <rect id="Rectangle_306" data-name="Rectangle 306" width="3.977" height="4.049" transform="translate(380.953 725.943)"/>
    <rect id="Rectangle_307" data-name="Rectangle 307" width="3.977" height="4.049" transform="translate(376.975 725.943)"/>
    <rect id="Rectangle_308" data-name="Rectangle 308" width="3.977" height="4.049" transform="translate(384.934 725.943)"/>
    <rect id="Rectangle_310" data-name="Rectangle 310" width="3.977" height="4.049" transform="translate(392.891 725.943)"/>
    <rect id="Rectangle_311" data-name="Rectangle 311" width="3.977" height="4.049" transform="translate(404.832 725.943)"/>
    <rect id="Rectangle_312" data-name="Rectangle 312" width="3.977" height="4.049" transform="translate(400.85 725.943)"/>
    <rect id="Rectangle_313" data-name="Rectangle 313" width="3.977" height="4.049" transform="translate(396.873 725.943)"/>
    <rect id="Rectangle_314" data-name="Rectangle 314" width="3.977" height="4.049" transform="translate(388.911 733.902)"/>
    <rect id="Rectangle_315" data-name="Rectangle 315" width="3.977" height="4.049" transform="translate(392.891 733.834)"/>
    <rect id="Rectangle_316" data-name="Rectangle 316" width="3.977" height="4.049" transform="translate(432.686 737.813)"/>
    <rect id="Rectangle_317" data-name="Rectangle 317" width="3.977" height="4.049" transform="translate(432.689 741.793)"/>
    <rect id="Rectangle_318" data-name="Rectangle 318" width="3.977" height="4.049" transform="translate(428.709 745.841)"/>
    <rect id="Rectangle_319" data-name="Rectangle 319" width="3.977" height="4.049" transform="translate(428.709 749.82)"/>
    <rect id="Rectangle_320" data-name="Rectangle 320" width="3.977" height="4.049" transform="translate(424.727 753.731)"/>
    <rect id="Rectangle_321" data-name="Rectangle 321" width="3.977" height="4.049" transform="translate(424.727 757.711)"/>
    <rect id="Rectangle_322" data-name="Rectangle 322" width="3.977" height="4.049" transform="translate(420.75 761.69)"/>
    <rect id="Rectangle_323" data-name="Rectangle 323" width="3.977" height="4.049" transform="translate(420.75 765.67)"/>
    <rect id="Rectangle_324" data-name="Rectangle 324" width="3.977" height="4.049" transform="translate(416.771 769.649)"/>
    <rect id="Rectangle_325" data-name="Rectangle 325" width="3.977" height="4.049" transform="translate(412.789 777.608)"/>
    <rect id="Rectangle_326" data-name="Rectangle 326" width="3.977" height="4.049" transform="translate(412.789 773.629)"/>
    <rect id="Rectangle_327" data-name="Rectangle 327" width="3.977" height="4.049" transform="translate(408.812 769.719)"/>
    <rect id="Rectangle_328" data-name="Rectangle 328" width="3.977" height="4.049" transform="translate(408.809 765.67)"/>
    <rect id="Rectangle_329" data-name="Rectangle 329" width="3.977" height="4.049" transform="translate(404.829 761.69)"/>
    <rect id="Rectangle_330" data-name="Rectangle 330" width="3.977" height="4.049" transform="translate(404.832 757.78)"/>
    <rect id="Rectangle_331" data-name="Rectangle 331" width="3.977" height="4.049" transform="translate(400.853 753.731)"/>
    <rect id="Rectangle_332" data-name="Rectangle 332" width="3.977" height="4.049" transform="translate(400.853 749.82)"/>
    <rect id="Rectangle_333" data-name="Rectangle 333" width="3.977" height="4.049" transform="translate(396.87 745.772)"/>
    <rect id="Rectangle_334" data-name="Rectangle 334" width="3.977" height="4.049" transform="translate(396.87 741.861)"/>
    <rect id="Rectangle_335" data-name="Rectangle 335" width="3.977" height="4.049" transform="translate(392.891 737.882)"/>
    <rect id="Rectangle_336" data-name="Rectangle 336" width="3.977" height="4.049" transform="translate(444.625 725.943)"/>
    <rect id="Rectangle_337" data-name="Rectangle 337" width="3.977" height="4.049" transform="translate(440.646 725.943)"/>
    <rect id="Rectangle_338" data-name="Rectangle 338" width="3.977" height="4.049" transform="translate(436.669 725.943)"/>
    <rect id="Rectangle_339" data-name="Rectangle 339" width="3.977" height="4.049" transform="translate(432.687 725.943)"/>
    <rect id="Rectangle_340" data-name="Rectangle 340" width="3.977" height="4.049" transform="translate(428.707 725.943)"/>
    <rect id="Rectangle_341" data-name="Rectangle 341" width="3.977" height="4.049" transform="translate(440.648 729.923)"/>
    <rect id="Rectangle_342" data-name="Rectangle 342" width="3.977" height="4.049" transform="translate(432.686 729.923)"/>
    <rect id="Rectangle_343" data-name="Rectangle 343" width="3.977" height="4.049" transform="translate(436.669 729.923)"/>
    <rect id="Rectangle_344" data-name="Rectangle 344" width="3.977" height="4.049" transform="translate(436.669 733.834)"/>
  </g>
</svg>
