<svg id="Group_2086" data-name="Group 2086" xmlns="http://www.w3.org/2000/svg" width="249.214" height="128.127" viewBox="0 0 249.214 128.127">
  <rect id="Rectangle_631" data-name="Rectangle 631" width="9.135" height="9.299" transform="translate(106.326 9.141)"/>
  <rect id="Rectangle_632" data-name="Rectangle 632" width="9.135" height="9.299" transform="translate(115.471 9.141)"/>
  <rect id="Rectangle_633" data-name="Rectangle 633" width="9.135" height="9.299" transform="translate(124.607 9.141)"/>
  <rect id="Rectangle_634" data-name="Rectangle 634" width="9.135" height="9.299" transform="translate(133.752 9.141)"/>
  <rect id="Rectangle_635" data-name="Rectangle 635" width="9.135" height="9.299" transform="translate(97.185)"/>
  <rect id="Rectangle_636" data-name="Rectangle 636" width="9.135" height="9.299" transform="translate(88.05)"/>
  <rect id="Rectangle_637" data-name="Rectangle 637" width="9.135" height="9.299" transform="translate(106.331)"/>
  <rect id="Rectangle_638" data-name="Rectangle 638" width="9.135" height="9.299" transform="translate(115.466)"/>
  <rect id="Rectangle_640" data-name="Rectangle 640" width="9.135" height="9.299" transform="translate(124.607 27.422)"/>
  <rect id="Rectangle_641" data-name="Rectangle 641" width="9.135" height="9.299" transform="translate(115.466 27.422)"/>
  <rect id="Rectangle_642" data-name="Rectangle 642" width="9.135" height="9.299" transform="translate(124.612 18.124)"/>
  <rect id="Rectangle_643" data-name="Rectangle 643" width="9.135" height="9.299" transform="translate(115.466 18.281)"/>
  <rect id="Rectangle_644" data-name="Rectangle 644" width="9.135" height="9.299" transform="translate(152.034)"/>
  <rect id="Rectangle_645" data-name="Rectangle 645" width="9.135" height="9.299" transform="translate(142.888)"/>
  <rect id="Rectangle_646" data-name="Rectangle 646" width="9.135" height="9.299" transform="translate(133.752)"/>
  <rect id="Rectangle_648" data-name="Rectangle 648" width="9.135" height="9.299" transform="translate(115.471 54.844)"/>
  <rect id="Rectangle_649" data-name="Rectangle 649" width="9.135" height="9.299" transform="translate(124.612 45.546)"/>
  <rect id="Rectangle_650" data-name="Rectangle 650" width="9.135" height="9.299" transform="translate(115.471 45.703)"/>
  <rect id="Rectangle_651" data-name="Rectangle 651" width="9.135" height="9.299" transform="translate(124.607 36.562)"/>
  <rect id="Rectangle_652" data-name="Rectangle 652" width="9.135" height="9.299" transform="translate(133.752 109.687)"/>
  <rect id="Rectangle_653" data-name="Rectangle 653" width="9.135" height="9.299" transform="translate(124.607 109.687)"/>
  <rect id="Rectangle_654" data-name="Rectangle 654" width="9.135" height="9.299" transform="translate(115.471 109.687)"/>
  <rect id="Rectangle_655" data-name="Rectangle 655" width="9.135" height="9.299" transform="translate(106.326 109.687)"/>
  <rect id="Rectangle_656" data-name="Rectangle 656" width="9.135" height="9.299" transform="translate(142.893 118.828)"/>
  <rect id="Rectangle_657" data-name="Rectangle 657" width="9.135" height="9.299" transform="translate(152.029 118.828)"/>
  <rect id="Rectangle_658" data-name="Rectangle 658" width="9.135" height="9.299" transform="translate(133.747 118.828)"/>
  <rect id="Rectangle_659" data-name="Rectangle 659" width="9.135" height="9.299" transform="translate(124.612 118.828)"/>
  <rect id="Rectangle_660" data-name="Rectangle 660" width="9.135" height="9.299" transform="translate(115.471 118.828)"/>
  <rect id="Rectangle_661" data-name="Rectangle 661" width="9.135" height="9.299" transform="translate(115.471 91.406)"/>
  <rect id="Rectangle_662" data-name="Rectangle 662" width="9.135" height="9.299" transform="translate(124.612 91.406)"/>
  <rect id="Rectangle_663" data-name="Rectangle 663" width="9.135" height="9.299" transform="translate(115.466 100.704)"/>
  <rect id="Rectangle_664" data-name="Rectangle 664" width="9.135" height="9.299" transform="translate(124.612 100.547)"/>
  <rect id="Rectangle_665" data-name="Rectangle 665" width="9.135" height="9.299" transform="translate(88.045 118.828)"/>
  <rect id="Rectangle_666" data-name="Rectangle 666" width="9.135" height="9.299" transform="translate(97.19 118.828)"/>
  <rect id="Rectangle_667" data-name="Rectangle 667" width="9.135" height="9.299" transform="translate(106.326 118.828)"/>
  <rect id="Rectangle_669" data-name="Rectangle 669" width="9.135" height="9.299" transform="translate(124.607 63.984)"/>
  <rect id="Rectangle_670" data-name="Rectangle 670" width="9.135" height="9.299" transform="translate(115.466 73.282)"/>
  <rect id="Rectangle_671" data-name="Rectangle 671" width="9.135" height="9.299" transform="translate(115.471 82.265)"/>
  <rect id="Rectangle_672" data-name="Rectangle 672" width="9.135" height="9.299" transform="translate(124.612 82.423)"/>
  <rect id="Rectangle_828" data-name="Rectangle 828" width="9.135" height="9.299" transform="translate(194.37 9.141)"/>
  <rect id="Rectangle_829" data-name="Rectangle 829" width="9.135" height="9.299" transform="translate(203.516 9.141)"/>
  <rect id="Rectangle_830" data-name="Rectangle 830" width="9.135" height="9.299" transform="translate(212.652 9.141)"/>
  <rect id="Rectangle_831" data-name="Rectangle 831" width="9.135" height="9.299" transform="translate(221.797 9.141)"/>
  <rect id="Rectangle_832" data-name="Rectangle 832" width="9.135" height="9.299" transform="translate(185.23)"/>
  <rect id="Rectangle_833" data-name="Rectangle 833" width="9.135" height="9.299" transform="translate(176.094)"/>
  <rect id="Rectangle_834" data-name="Rectangle 834" width="9.135" height="9.299" transform="translate(194.375)"/>
  <rect id="Rectangle_835" data-name="Rectangle 835" width="9.135" height="9.299" transform="translate(203.511)"/>
  <rect id="Rectangle_836" data-name="Rectangle 836" width="9.135" height="9.299" transform="translate(212.652)"/>
  <rect id="Rectangle_837" data-name="Rectangle 837" width="9.135" height="9.299" transform="translate(212.652 27.422)"/>
  <rect id="Rectangle_838" data-name="Rectangle 838" width="9.135" height="9.299" transform="translate(203.511 27.422)"/>
  <rect id="Rectangle_839" data-name="Rectangle 839" width="9.135" height="9.299" transform="translate(212.657 18.124)"/>
  <rect id="Rectangle_840" data-name="Rectangle 840" width="9.135" height="9.299" transform="translate(203.511 18.281)"/>
  <rect id="Rectangle_841" data-name="Rectangle 841" width="9.135" height="9.299" transform="translate(240.078)"/>
  <rect id="Rectangle_842" data-name="Rectangle 842" width="9.135" height="9.299" transform="translate(230.933)"/>
  <rect id="Rectangle_843" data-name="Rectangle 843" width="9.135" height="9.299" transform="translate(221.797)"/>
  <rect id="Rectangle_845" data-name="Rectangle 845" width="9.135" height="9.299" transform="translate(203.516 54.844)"/>
  <rect id="Rectangle_846" data-name="Rectangle 846" width="9.135" height="9.299" transform="translate(212.657 45.546)"/>
  <rect id="Rectangle_847" data-name="Rectangle 847" width="9.135" height="9.299" transform="translate(203.516 45.703)"/>
  <rect id="Rectangle_848" data-name="Rectangle 848" width="9.135" height="9.299" transform="translate(212.652 36.562)"/>
  <rect id="Rectangle_849" data-name="Rectangle 849" width="9.135" height="9.299" transform="translate(221.797 109.687)"/>
  <rect id="Rectangle_850" data-name="Rectangle 850" width="9.135" height="9.299" transform="translate(212.652 109.687)"/>
  <rect id="Rectangle_851" data-name="Rectangle 851" width="9.135" height="9.299" transform="translate(203.516 109.687)"/>
  <rect id="Rectangle_852" data-name="Rectangle 852" width="9.135" height="9.299" transform="translate(194.37 109.687)"/>
  <rect id="Rectangle_853" data-name="Rectangle 853" width="9.135" height="9.299" transform="translate(230.938 118.828)"/>
  <rect id="Rectangle_854" data-name="Rectangle 854" width="9.135" height="9.299" transform="translate(240.073 118.828)"/>
  <rect id="Rectangle_855" data-name="Rectangle 855" width="9.135" height="9.299" transform="translate(221.792 118.828)"/>
  <rect id="Rectangle_856" data-name="Rectangle 856" width="9.135" height="9.299" transform="translate(212.657 118.828)"/>
  <rect id="Rectangle_859" data-name="Rectangle 859" width="9.135" height="9.299" transform="translate(212.657 91.406)"/>
  <rect id="Rectangle_860" data-name="Rectangle 860" width="9.135" height="9.299" transform="translate(203.511 100.704)"/>
  <rect id="Rectangle_861" data-name="Rectangle 861" width="9.135" height="9.299" transform="translate(212.657 100.547)"/>
  <rect id="Rectangle_862" data-name="Rectangle 862" width="9.135" height="9.299" transform="translate(176.09 118.828)"/>
  <rect id="Rectangle_863" data-name="Rectangle 863" width="9.135" height="9.299" transform="translate(185.235 118.828)"/>
  <rect id="Rectangle_864" data-name="Rectangle 864" width="9.135" height="9.299" transform="translate(194.37 118.828)"/>
  <rect id="Rectangle_865" data-name="Rectangle 865" width="9.135" height="9.299" transform="translate(203.516 63.984)"/>
  <rect id="Rectangle_866" data-name="Rectangle 866" width="9.135" height="9.299" transform="translate(212.652 63.984)"/>
  <rect id="Rectangle_867" data-name="Rectangle 867" width="9.135" height="9.299" transform="translate(203.511 73.282)"/>
  <rect id="Rectangle_868" data-name="Rectangle 868" width="9.135" height="9.299" transform="translate(203.516 82.265)"/>
  <rect id="Rectangle_869" data-name="Rectangle 869" width="9.135" height="9.299" transform="translate(212.657 82.423)"/>
  <rect id="Rectangle_870" data-name="Rectangle 870" width="9.135" height="9.299" transform="translate(18.281 9.141)"/>
  <rect id="Rectangle_871" data-name="Rectangle 871" width="9.135" height="9.299" transform="translate(27.426 9.141)"/>
  <rect id="Rectangle_872" data-name="Rectangle 872" width="9.135" height="9.299" transform="translate(36.562 9.141)"/>
  <rect id="Rectangle_873" data-name="Rectangle 873" width="9.135" height="9.299" transform="translate(45.707 9.141)"/>
  <rect id="Rectangle_874" data-name="Rectangle 874" width="9.135" height="9.299" transform="translate(9.14)"/>
  <rect id="Rectangle_875" data-name="Rectangle 875" width="9.135" height="9.299" transform="translate(0.004)"/>
  <rect id="Rectangle_876" data-name="Rectangle 876" width="9.135" height="9.299" transform="translate(18.286)"/>
  <rect id="Rectangle_877" data-name="Rectangle 877" width="9.135" height="9.299" transform="translate(27.421)"/>
  <rect id="Rectangle_878" data-name="Rectangle 878" width="9.135" height="9.299" transform="translate(36.562)"/>
  <rect id="Rectangle_880" data-name="Rectangle 880" width="9.135" height="9.299" transform="translate(27.421 27.422)"/>
  <rect id="Rectangle_881" data-name="Rectangle 881" width="9.135" height="9.299" transform="translate(36.567 18.124)"/>
  <rect id="Rectangle_882" data-name="Rectangle 882" width="9.135" height="9.299" transform="translate(27.421 18.281)"/>
  <rect id="Rectangle_883" data-name="Rectangle 883" width="9.135" height="9.299" transform="translate(63.989)"/>
  <rect id="Rectangle_884" data-name="Rectangle 884" width="9.135" height="9.299" transform="translate(54.843)"/>
  <rect id="Rectangle_885" data-name="Rectangle 885" width="9.135" height="9.299" transform="translate(45.707)"/>
  <rect id="Rectangle_886" data-name="Rectangle 886" width="9.135" height="9.299" transform="translate(36.562 54.844)"/>
  <rect id="Rectangle_887" data-name="Rectangle 887" width="9.135" height="9.299" transform="translate(27.426 54.844)"/>
  <rect id="Rectangle_888" data-name="Rectangle 888" width="9.135" height="9.299" transform="translate(36.567 45.546)"/>
  <rect id="Rectangle_890" data-name="Rectangle 890" width="9.135" height="9.299" transform="translate(36.562 36.562)"/>
  <rect id="Rectangle_891" data-name="Rectangle 891" width="9.135" height="9.299" transform="translate(45.707 109.687)"/>
  <rect id="Rectangle_892" data-name="Rectangle 892" width="9.135" height="9.299" transform="translate(36.562 109.687)"/>
  <rect id="Rectangle_893" data-name="Rectangle 893" width="9.135" height="9.299" transform="translate(27.426 109.687)"/>
  <rect id="Rectangle_894" data-name="Rectangle 894" width="9.135" height="9.299" transform="translate(18.281 109.687)"/>
  <rect id="Rectangle_895" data-name="Rectangle 895" width="9.135" height="9.299" transform="translate(54.848 118.828)"/>
  <rect id="Rectangle_896" data-name="Rectangle 896" width="9.135" height="9.299" transform="translate(63.984 118.828)"/>
  <rect id="Rectangle_897" data-name="Rectangle 897" width="9.135" height="9.299" transform="translate(45.702 118.828)"/>
  <rect id="Rectangle_899" data-name="Rectangle 899" width="9.135" height="9.299" transform="translate(27.426 118.828)"/>
  <rect id="Rectangle_900" data-name="Rectangle 900" width="9.135" height="9.299" transform="translate(27.426 91.406)"/>
  <rect id="Rectangle_901" data-name="Rectangle 901" width="9.135" height="9.299" transform="translate(36.567 91.406)"/>
  <rect id="Rectangle_902" data-name="Rectangle 902" width="9.135" height="9.299" transform="translate(27.421 100.704)"/>
  <rect id="Rectangle_903" data-name="Rectangle 903" width="9.135" height="9.299" transform="translate(36.567 100.547)"/>
  <rect id="Rectangle_904" data-name="Rectangle 904" width="9.135" height="9.299" transform="translate(0 118.828)"/>
  <rect id="Rectangle_905" data-name="Rectangle 905" width="9.135" height="9.299" transform="translate(9.145 118.828)"/>
  <rect id="Rectangle_906" data-name="Rectangle 906" width="9.135" height="9.299" transform="translate(18.281 118.828)"/>
  <rect id="Rectangle_907" data-name="Rectangle 907" width="9.135" height="9.299" transform="translate(27.426 63.984)"/>
  <rect id="Rectangle_908" data-name="Rectangle 908" width="9.135" height="9.299" transform="translate(36.562 63.984)"/>
  <rect id="Rectangle_909" data-name="Rectangle 909" width="9.135" height="9.299" transform="translate(27.421 73.282)"/>
  <rect id="Rectangle_910" data-name="Rectangle 910" width="9.135" height="9.299" transform="translate(27.426 82.265)"/>
  <rect id="Rectangle_911" data-name="Rectangle 911" width="9.135" height="9.299" transform="translate(36.567 82.423)"/>
</svg>
