<svg xmlns="http://www.w3.org/2000/svg" width="113.037" height="55.748" viewBox="0 0 113.037 55.748">
  <g id="Group_2100" data-name="Group 2100" transform="translate(-122.503 -725.943)">
    <rect id="Rectangle_912" data-name="Rectangle 912" width="3.972" height="4.043" transform="translate(211.692 729.952)"/>
    <rect id="Rectangle_913" data-name="Rectangle 913" width="3.972" height="4.043" transform="translate(215.668 729.952)"/>
    <rect id="Rectangle_914" data-name="Rectangle 914" width="3.972" height="4.043" transform="translate(219.641 729.952)"/>
    <rect id="Rectangle_915" data-name="Rectangle 915" width="3.972" height="4.043" transform="translate(223.618 729.952)"/>
    <rect id="Rectangle_916" data-name="Rectangle 916" width="3.972" height="4.043" transform="translate(207.717 725.978)"/>
    <rect id="Rectangle_917" data-name="Rectangle 917" width="3.972" height="4.043" transform="translate(203.745 725.978)"/>
    <rect id="Rectangle_918" data-name="Rectangle 918" width="3.972" height="4.043" transform="translate(211.694 725.978)"/>
    <rect id="Rectangle_919" data-name="Rectangle 919" width="3.972" height="4.043" transform="translate(215.666 725.978)"/>
    <rect id="Rectangle_920" data-name="Rectangle 920" width="3.972" height="4.043" transform="translate(219.641 725.978)"/>
    <rect id="Rectangle_921" data-name="Rectangle 921" width="3.972" height="4.043" transform="translate(219.641 737.901)"/>
    <rect id="Rectangle_922" data-name="Rectangle 922" width="3.972" height="4.043" transform="translate(215.666 737.901)"/>
    <rect id="Rectangle_923" data-name="Rectangle 923" width="3.972" height="4.043" transform="translate(219.643 733.858)"/>
    <rect id="Rectangle_924" data-name="Rectangle 924" width="3.972" height="4.043" transform="translate(215.666 733.927)"/>
    <rect id="Rectangle_925" data-name="Rectangle 925" width="3.972" height="4.043" transform="translate(231.567 725.978)"/>
    <rect id="Rectangle_926" data-name="Rectangle 926" width="3.972" height="4.043" transform="translate(227.59 725.978)"/>
    <rect id="Rectangle_927" data-name="Rectangle 927" width="3.972" height="4.043" transform="translate(223.618 725.978)"/>
    <rect id="Rectangle_928" data-name="Rectangle 928" width="3.972" height="4.043" transform="translate(219.641 749.825)"/>
    <rect id="Rectangle_929" data-name="Rectangle 929" width="3.972" height="4.043" transform="translate(215.668 749.825)"/>
    <rect id="Rectangle_930" data-name="Rectangle 930" width="3.972" height="4.043" transform="translate(219.643 745.782)"/>
    <rect id="Rectangle_931" data-name="Rectangle 931" width="3.972" height="4.043" transform="translate(215.668 745.851)"/>
    <rect id="Rectangle_932" data-name="Rectangle 932" width="3.972" height="4.043" transform="translate(219.641 741.876)"/>
    <rect id="Rectangle_933" data-name="Rectangle 933" width="3.972" height="4.043" transform="translate(223.618 773.673)"/>
    <rect id="Rectangle_934" data-name="Rectangle 934" width="3.972" height="4.043" transform="translate(219.641 773.673)"/>
    <rect id="Rectangle_935" data-name="Rectangle 935" width="3.972" height="4.043" transform="translate(215.668 773.673)"/>
    <rect id="Rectangle_936" data-name="Rectangle 936" width="3.972" height="4.043" transform="translate(211.692 773.673)"/>
    <rect id="Rectangle_937" data-name="Rectangle 937" width="3.972" height="4.043" transform="translate(227.592 777.647)"/>
    <rect id="Rectangle_938" data-name="Rectangle 938" width="3.972" height="4.043" transform="translate(231.565 777.647)"/>
    <rect id="Rectangle_939" data-name="Rectangle 939" width="3.972" height="4.043" transform="translate(223.615 777.647)"/>
    <rect id="Rectangle_940" data-name="Rectangle 940" width="3.972" height="4.043" transform="translate(219.643 777.647)"/>
    <rect id="Rectangle_941" data-name="Rectangle 941" width="3.972" height="4.043" transform="translate(215.668 777.647)"/>
    <rect id="Rectangle_942" data-name="Rectangle 942" width="3.972" height="4.043" transform="translate(215.668 765.724)"/>
    <rect id="Rectangle_943" data-name="Rectangle 943" width="3.972" height="4.043" transform="translate(219.643 765.724)"/>
    <rect id="Rectangle_944" data-name="Rectangle 944" width="3.972" height="4.043" transform="translate(215.666 769.767)"/>
    <rect id="Rectangle_945" data-name="Rectangle 945" width="3.972" height="4.043" transform="translate(219.643 769.698)"/>
    <rect id="Rectangle_946" data-name="Rectangle 946" width="3.972" height="4.043" transform="translate(203.743 777.647)"/>
    <rect id="Rectangle_947" data-name="Rectangle 947" width="3.972" height="4.043" transform="translate(207.719 777.647)"/>
    <rect id="Rectangle_948" data-name="Rectangle 948" width="3.972" height="4.043" transform="translate(211.692 777.647)"/>
    <rect id="Rectangle_949" data-name="Rectangle 949" width="3.972" height="4.043" transform="translate(215.668 753.8)"/>
    <rect id="Rectangle_950" data-name="Rectangle 950" width="3.972" height="4.043" transform="translate(219.641 753.8)"/>
    <rect id="Rectangle_951" data-name="Rectangle 951" width="3.972" height="4.043" transform="translate(215.666 757.843)"/>
    <rect id="Rectangle_952" data-name="Rectangle 952" width="3.972" height="4.043" transform="translate(215.668 761.749)"/>
    <rect id="Rectangle_953" data-name="Rectangle 953" width="3.972" height="4.043" transform="translate(219.643 761.817)"/>
    <g id="Group_2079" data-name="Group 2079" transform="translate(122.503 725.943)">
      <rect id="Rectangle_291" data-name="Rectangle 291" width="3.977" height="4.049" transform="translate(19.898 27.788)"/>
      <rect id="Rectangle_292" data-name="Rectangle 292" width="3.977" height="4.049" transform="translate(23.875 31.768)"/>
      <rect id="Rectangle_293" data-name="Rectangle 293" width="3.977" height="4.049" transform="translate(31.836 47.755)"/>
      <rect id="Rectangle_294" data-name="Rectangle 294" width="3.977" height="4.049" transform="translate(15.916 19.829)"/>
      <rect id="Rectangle_295" data-name="Rectangle 295" width="3.977" height="4.049" transform="translate(15.916 15.849)"/>
      <rect id="Rectangle_296" data-name="Rectangle 296" width="3.977" height="4.049" transform="translate(11.936 11.939)"/>
      <rect id="Rectangle_297" data-name="Rectangle 297" width="3.977" height="4.049" transform="translate(27.854 43.706)"/>
      <rect id="Rectangle_298" data-name="Rectangle 298" width="3.977" height="4.049" transform="translate(31.836 51.665)"/>
      <rect id="Rectangle_299" data-name="Rectangle 299" width="3.977" height="4.049" transform="translate(19.898 23.808)"/>
      <rect id="Rectangle_300" data-name="Rectangle 300" width="3.977" height="4.049" transform="translate(27.854 39.727)"/>
      <rect id="Rectangle_301" data-name="Rectangle 301" width="3.977" height="4.049" transform="translate(23.875 35.747)"/>
      <rect id="Rectangle_302" data-name="Rectangle 302" width="3.977" height="4.049" transform="translate(7.956 3.98)"/>
      <rect id="Rectangle_303" data-name="Rectangle 303" width="3.977" height="4.049" transform="translate(11.939 3.98)"/>
      <rect id="Rectangle_304" data-name="Rectangle 304" width="3.977" height="4.049" transform="translate(15.916 3.98)"/>
      <rect id="Rectangle_305" data-name="Rectangle 305" width="3.977" height="4.049" transform="translate(19.898 3.98)"/>
      <rect id="Rectangle_306" data-name="Rectangle 306" width="3.977" height="4.049" transform="translate(3.977)"/>
      <rect id="Rectangle_307" data-name="Rectangle 307" width="3.977" height="4.049"/>
      <rect id="Rectangle_308" data-name="Rectangle 308" width="3.977" height="4.049" transform="translate(7.959)"/>
      <rect id="Rectangle_309" data-name="Rectangle 309" width="3.977" height="4.049" transform="translate(11.936)"/>
      <rect id="Rectangle_310" data-name="Rectangle 310" width="3.977" height="4.049" transform="translate(15.916)"/>
      <rect id="Rectangle_311" data-name="Rectangle 311" width="3.977" height="4.049" transform="translate(27.857)"/>
      <rect id="Rectangle_312" data-name="Rectangle 312" width="3.977" height="4.049" transform="translate(23.875)"/>
      <rect id="Rectangle_313" data-name="Rectangle 313" width="3.977" height="4.049" transform="translate(19.898)"/>
      <rect id="Rectangle_314" data-name="Rectangle 314" width="3.977" height="4.049" transform="translate(11.936 7.959)"/>
      <rect id="Rectangle_315" data-name="Rectangle 315" width="3.977" height="4.049" transform="translate(15.916 7.89)"/>
      <rect id="Rectangle_316" data-name="Rectangle 316" width="3.977" height="4.049" transform="translate(55.711 11.87)"/>
      <rect id="Rectangle_317" data-name="Rectangle 317" width="3.977" height="4.049" transform="translate(55.714 15.849)"/>
      <rect id="Rectangle_318" data-name="Rectangle 318" width="3.977" height="4.049" transform="translate(51.734 19.898)"/>
      <rect id="Rectangle_319" data-name="Rectangle 319" width="3.977" height="4.049" transform="translate(51.734 23.877)"/>
      <rect id="Rectangle_320" data-name="Rectangle 320" width="3.977" height="4.049" transform="translate(47.752 27.788)"/>
      <rect id="Rectangle_321" data-name="Rectangle 321" width="3.977" height="4.049" transform="translate(47.752 31.768)"/>
      <rect id="Rectangle_322" data-name="Rectangle 322" width="3.977" height="4.049" transform="translate(43.775 35.747)"/>
      <rect id="Rectangle_323" data-name="Rectangle 323" width="3.977" height="4.049" transform="translate(43.775 39.727)"/>
      <rect id="Rectangle_324" data-name="Rectangle 324" width="3.977" height="4.049" transform="translate(39.796 43.706)"/>
      <rect id="Rectangle_325" data-name="Rectangle 325" width="3.977" height="4.049" transform="translate(35.814 51.665)"/>
      <rect id="Rectangle_326" data-name="Rectangle 326" width="3.977" height="4.049" transform="translate(35.813 47.686)"/>
      <rect id="Rectangle_327" data-name="Rectangle 327" width="3.977" height="4.049" transform="translate(31.836 43.775)"/>
      <rect id="Rectangle_328" data-name="Rectangle 328" width="3.977" height="4.049" transform="translate(31.834 39.727)"/>
      <rect id="Rectangle_329" data-name="Rectangle 329" width="3.977" height="4.049" transform="translate(27.854 35.747)"/>
      <rect id="Rectangle_330" data-name="Rectangle 330" width="3.977" height="4.049" transform="translate(27.857 31.836)"/>
      <rect id="Rectangle_331" data-name="Rectangle 331" width="3.977" height="4.049" transform="translate(23.877 27.788)"/>
      <rect id="Rectangle_332" data-name="Rectangle 332" width="3.977" height="4.049" transform="translate(23.877 23.877)"/>
      <rect id="Rectangle_333" data-name="Rectangle 333" width="3.977" height="4.049" transform="translate(19.895 19.829)"/>
      <rect id="Rectangle_334" data-name="Rectangle 334" width="3.977" height="4.049" transform="translate(19.895 15.918)"/>
      <rect id="Rectangle_335" data-name="Rectangle 335" width="3.977" height="4.049" transform="translate(15.916 11.939)"/>
      <rect id="Rectangle_336" data-name="Rectangle 336" width="3.977" height="4.049" transform="translate(67.65)"/>
      <rect id="Rectangle_337" data-name="Rectangle 337" width="3.977" height="4.049" transform="translate(63.671)"/>
      <rect id="Rectangle_338" data-name="Rectangle 338" width="3.977" height="4.049" transform="translate(59.693)"/>
      <rect id="Rectangle_339" data-name="Rectangle 339" width="3.977" height="4.049" transform="translate(55.712)"/>
      <rect id="Rectangle_340" data-name="Rectangle 340" width="3.977" height="4.049" transform="translate(51.732)"/>
      <rect id="Rectangle_341" data-name="Rectangle 341" width="3.977" height="4.049" transform="translate(63.673 3.98)"/>
      <rect id="Rectangle_342" data-name="Rectangle 342" width="3.977" height="4.049" transform="translate(55.711 3.98)"/>
      <rect id="Rectangle_343" data-name="Rectangle 343" width="3.977" height="4.049" transform="translate(59.693 3.98)"/>
      <rect id="Rectangle_344" data-name="Rectangle 344" width="3.977" height="4.049" transform="translate(59.693 7.89)"/>
    </g>
  </g>
</svg>
