<svg xmlns="http://www.w3.org/2000/svg" width="58.892" height="63.725" viewBox="0 0 58.892 63.725">
  <g id="Group_33" data-name="Group 33" transform="translate(-1308.256 -5360.177)">
    <path id="Path_1-2" data-name="Path 1-2" d="M1332.6,5408.654l33.951,1.922v-37.442l-33.817,2.521-23.067-8.588,17.143,13.658v21.729l-17.874,14.035,48.975,6.813,8.641-12.727-8.641,12.727-9.44-19.8,6.367-2.057,11.713,9.131v-37.441l-8.64-12.12-10.019,18.142.578,24.345-21.66-1.047,10.126-1.666v-17.6l-4.2-7.532-.134,33,4.336-7.866-4.336,7.866,33.951,1.921-8.64,12.727v-62.288" fill="none" stroke="#000" stroke-linecap="round" stroke-linejoin="round" stroke-width="0.5"/>
    <path id="Path_1-2-2" data-name="Path 1-2" d="M1354.836,5400.788h-17.9v-17.6l-10.126-2.462,10.126,2.462,17.9-.65v18.907l-15.076,4.941-30.826,10.1" fill="none" stroke="#000" stroke-linecap="round" stroke-linejoin="round" stroke-width="0.5"/>
    <line id="Line_5" data-name="Line 5" x1="11.713" y2="9.403" transform="translate(1354.835 5373.134)" fill="none" stroke="#000" stroke-linecap="round" stroke-linejoin="round" stroke-width="0.5"/>
    <g id="Group_21" data-name="Group 21">
      <path id="Path_1-2-3" data-name="Path 1-2" d="M1354.836,5382.538l-6.947-3.382-21.082,1.569" fill="none" stroke="#000" stroke-linecap="round" stroke-linejoin="round" stroke-width="1.2"/>
      <path id="Path_1-2-4" data-name="Path 1-2" d="M1309.665,5367.067l-.732,49.422.732-49.422,48.243-6.053" fill="none" stroke="#000" stroke-linecap="round" stroke-linejoin="round" stroke-width="1.2"/>
      <path id="Path_39" data-name="Path 39" d="M1354.835,5382.538v18.906l-6.368,2.058-21.661-1.047v-21.729" fill="none" stroke="#000" stroke-linecap="round" stroke-linejoin="round" stroke-width="1.2"/>
      <path id="Path_40" data-name="Path 40" d="M1308.933,5416.489l48.975,6.813,8.641-13.019v-37.149l-8.64-12.12" fill="none" stroke="#000" stroke-linecap="round" stroke-linejoin="round" stroke-width="1.2"/>
    </g>
  </g>
</svg>
