<svg id="logo-github" xmlns="http://www.w3.org/2000/svg" width="46.621" height="46.621" viewBox="0 0 46.621 46.621">
  <path id="Path_1656" data-name="Path 1656" d="M55.311,32C42.438,32,32,42.708,32,55.9A23.858,23.858,0,0,0,47.943,78.579a1.827,1.827,0,0,0,.4.042,1.128,1.128,0,0,0,1.2-1.186c0-.572-.021-2.071-.031-4.069a10.656,10.656,0,0,1-2.352.281c-4.485,0-5.505-3.486-5.505-3.486-1.061-2.758-2.591-3.5-2.591-3.5-2.029-1.426-.01-1.467.146-1.467h.01a5.011,5.011,0,0,1,3.569,2.477A4.576,4.576,0,0,0,46.9,70.285a6.551,6.551,0,0,0,2.664-.624,5.164,5.164,0,0,1,1.478-3.195c-5.172-.6-10.615-2.654-10.615-11.811a9.356,9.356,0,0,1,2.394-6.41,8.8,8.8,0,0,1,.229-6.327,1.94,1.94,0,0,1,.52-.052c.843,0,2.747.323,5.89,2.508a21.668,21.668,0,0,1,11.676,0c3.143-2.185,5.047-2.508,5.89-2.508a1.94,1.94,0,0,1,.52.052,8.8,8.8,0,0,1,.229,6.327,9.394,9.394,0,0,1,2.393,6.41c0,9.179-5.453,11.2-10.646,11.791a5.8,5.8,0,0,1,1.582,4.423c0,3.195-.031,5.776-.031,6.556a1.122,1.122,0,0,0,1.186,1.2,2.014,2.014,0,0,0,.416-.042A23.854,23.854,0,0,0,78.621,55.9C78.621,42.708,68.183,32,55.311,32Z" transform="translate(-32 -32)" fill="#fff"/>
</svg>
