<svg xmlns="http://www.w3.org/2000/svg" width="20.26" height="20.26" viewBox="0 0 20.26 20.26">
  <g id="Group_2114" data-name="Group 2114" transform="translate(-105 -1169)">
    <g id="Group_2114-2" data-name="Group 2114" transform="translate(105 1169)">
      <rect id="Rectangle_1453" data-name="Rectangle 1453" width="20.26" height="20.26" fill="#fff"/>
      <g id="icons8-medium-monogram">
        <path id="Path_1657" data-name="Path 1657" d="M4.482,4A.482.482,0,0,0,4,4.482v19.3a.482.482,0,0,0,.482.482h19.3a.482.482,0,0,0,.482-.482V4.482A.482.482,0,0,0,23.778,4Zm.482.965H23.3V23.3H4.965ZM7.377,8.341v.241l.9,1.206a.291.291,0,0,1,.069.188v7.289a.465.465,0,0,1-.1.293L6.894,19.218v.219h3.859v-.219L9.41,17.549a.465.465,0,0,1-.1-.292V10.934l4.006,8.5h.744l0-.01L17.507,10.7v7.173a.291.291,0,0,1-.087.206l-1.36,1.143v.219h5.306v-.219l-.878-1.143a.291.291,0,0,1-.087-.206V9.849a.291.291,0,0,1,.087-.206l.878-1.06V8.341H17.4L14.61,15.4,11.283,8.341Zm2.229.965H10.67l3.454,7.33-.485,1.23h0Zm8.866,0h1.089a1.259,1.259,0,0,0-.124.543v8.02a1.256,1.256,0,0,0,.155.6H18.316a1.256,1.256,0,0,0,.155-.6V9.306Z" transform="translate(-4 -4)" fill="#212121"/>
      </g>
    </g>
  </g>
</svg>
