<svg xmlns="http://www.w3.org/2000/svg" width="257" height="288.295" viewBox="0 0 257 288.295">
  <g id="Group_2112" data-name="Group 2112" transform="translate(0 0)">
    <rect id="Rectangle_1416" data-name="Rectangle 1416" width="32.076" height="32.076" transform="translate(224.535 0)" fill="#1a1a1a"/>
    <rect id="Rectangle_1417" data-name="Rectangle 1417" width="32.076" height="32.076" transform="translate(224.535 128.304)" fill="#1a1a1a"/>
    <rect id="Rectangle_1418" data-name="Rectangle 1418" width="32.076" height="32.076" transform="translate(160.383 0)" fill="#1a1a1a"/>
    <rect id="Rectangle_1419" data-name="Rectangle 1419" width="32.076" height="32.076" transform="translate(193.917 33.534)" fill="#1a1a1a"/>
    <rect id="Rectangle_1420" data-name="Rectangle 1420" width="32.076" height="32.076" transform="translate(192.459 160.38)" fill="#1a1a1a"/>
    <rect id="Rectangle_1421" data-name="Rectangle 1421" width="32.076" height="32.076" transform="translate(160.383 191.676)" fill="#1a1a1a"/>
    <rect id="Rectangle_1422" data-name="Rectangle 1422" width="32.076" height="32.076" transform="translate(224.924 256.219)" fill="#1a1a1a"/>
    <rect id="Rectangle_1423" data-name="Rectangle 1423" width="32.076" height="32.076" transform="translate(224.535 191.676)" fill="#1a1a1a"/>
    <rect id="Rectangle_1424" data-name="Rectangle 1424" width="32.076" height="32.076" transform="translate(160.383 128.304)" fill="#1a1a1a"/>
    <rect id="Rectangle_1425" data-name="Rectangle 1425" width="32.076" height="32.076" transform="translate(96.231 128.304)" fill="#1a1a1a"/>
    <rect id="Rectangle_1426" data-name="Rectangle 1426" width="32.076" height="32.076" transform="translate(64.155 96.228)" fill="#1a1a1a"/>
    <rect id="Rectangle_1427" data-name="Rectangle 1427" width="32.073" height="32.076" transform="translate(96.231 0)" fill="#1a1a1a"/>
    <rect id="Rectangle_1428" data-name="Rectangle 1428" width="32.076" height="32.076" transform="translate(0 0)" fill="#1a1a1a"/>
    <rect id="Rectangle_1429" data-name="Rectangle 1429" width="32.076" height="32.076" transform="translate(96.231 32.076)" fill="#1a1a1a"/>
    <rect id="Rectangle_1430" data-name="Rectangle 1430" width="32.076" height="32.076" transform="translate(64.155 32.076)" fill="#1a1a1a"/>
    <rect id="Rectangle_1431" data-name="Rectangle 1431" width="32.076" height="32.076" transform="translate(128.307 32.076)" fill="#1a1a1a"/>
    <rect id="Rectangle_1432" data-name="Rectangle 1432" width="32.076" height="32.076" transform="translate(64.155 64.152)" fill="#1a1a1a"/>
    <rect id="Rectangle_1433" data-name="Rectangle 1433" width="32.076" height="32.076" transform="translate(32.079 64.152)" fill="#1a1a1a"/>
    <rect id="Rectangle_1434" data-name="Rectangle 1434" width="32.076" height="32.076" transform="translate(96.231 64.152)" fill="#1a1a1a"/>
    <rect id="Rectangle_1435" data-name="Rectangle 1435" width="32.076" height="32.076" transform="translate(160.383 64.152)" fill="#1a1a1a"/>
    <rect id="Rectangle_1436" data-name="Rectangle 1436" width="32.076" height="32.076" transform="translate(128.307 64.152)" fill="#1a1a1a"/>
    <rect id="Rectangle_1437" data-name="Rectangle 1437" width="32.076" height="32.076" transform="translate(192.459 64.152)" fill="#1a1a1a"/>
    <rect id="Rectangle_1438" data-name="Rectangle 1438" width="32.076" height="32.076" transform="translate(160.383 95.839)" fill="#1a1a1a"/>
    <rect id="Rectangle_1439" data-name="Rectangle 1439" width="32.076" height="32.076" transform="translate(224.535 64.152)" fill="#1a1a1a"/>
    <rect id="Rectangle_1440" data-name="Rectangle 1440" width="32.076" height="32.076" transform="translate(192.459 95.839)" fill="#1a1a1a"/>
    <rect id="Rectangle_1441" data-name="Rectangle 1441" width="32.076" height="32.076" transform="translate(64.155 160.38)" fill="#1a1a1a"/>
    <rect id="Rectangle_1442" data-name="Rectangle 1442" width="32.076" height="32.076" transform="translate(224.535 96.228)" fill="#1a1a1a"/>
    <rect id="Rectangle_1443" data-name="Rectangle 1443" width="32.076" height="32.076" transform="translate(96.231 160.38)" fill="#1a1a1a"/>
    <rect id="Rectangle_1444" data-name="Rectangle 1444" width="32.076" height="32.076" transform="translate(128.307 160.38)" fill="#1a1a1a"/>
  </g>
</svg>
