<svg id="Group_16" data-name="Group 16" xmlns="http://www.w3.org/2000/svg" width="48.307" height="48.319" viewBox="0 0 48.307 48.319">
  <g id="Group_15" data-name="Group 15">
    <path id="Path_35" data-name="Path 35" d="M1189.267,810.087a24.159,24.159,0,1,1,24.156-23.734.817.817,0,1,1-1.634-.03,22.524,22.524,0,1,0-6.594,15.532,22.928,22.928,0,0,0,2.063-2.369.817.817,0,1,1,1.3.984,24.6,24.6,0,0,1-2.211,2.539A24,24,0,0,1,1189.267,810.087Z" transform="translate(-1165.12 -761.768)" fill="#030405"/>
    <path id="Path_36" data-name="Path 36" d="M1228.788,826.4a.8.8,0,0,1-.8-.8v-4.624h-4.658a.8.8,0,0,1,0-1.6h5.457a.8.8,0,0,1,.8.8V825.6A.8.8,0,0,1,1228.788,826.4Z" transform="translate(-1185.697 -782.417)" fill="#030405"/>
    <path id="Path_37" data-name="Path 37" d="M1202.3,790.125a.818.818,0,0,1-.817-.817V773.266a.817.817,0,0,1,1.634,0v16.042A.818.818,0,0,1,1202.3,790.125Z" transform="translate(-1178.153 -765.596)" fill="#030405"/>
    <path id="Path_38" data-name="Path 38" d="M1195.71,799.784h-11.8a.817.817,0,1,1,0-1.634h11.8a.817.817,0,1,1,0,1.634Z" transform="translate(-1171.563 -774.808)" fill="#030405"/>
  </g>
</svg>
